<?xml version="1.0" standalone="no"?>
<!DOCTYPE svg PUBLIC "-//W3C//DTD SVG 20010904//EN"
 "http://www.w3.org/TR/2001/REC-SVG-20010904/DTD/svg10.dtd">
<svg version="1.0" xmlns="http://www.w3.org/2000/svg"
 width="700.000000pt" height="600.000000pt" viewBox="0 0 700.000000 600.000000"
 preserveAspectRatio="xMidYMid meet">
<metadata>
Created by potrace 1.16, written by Peter Selinger 2001-2019
</metadata>
<g transform="translate(0.000000,600.000000) scale(0.100000,-0.100000)"
fill="#000000" stroke="none">
<path fill="white" d="M1290 5768 c-49 -34 -72 -71 -77 -125 -6 -69 27 -130 87 -160 41 -21
57 -23 232 -23 l188 0 0 -1504 0 -1503 -47 -18 c-63 -24 -109 -54 -187 -119
-84 -72 -114 -86 -181 -86 -64 0 -100 16 -159 70 -121 111 -237 163 -368 164
-63 1 -82 -3 -105 -20 -123 -91 -83 -270 65 -289 88 -11 117 -24 199 -93 101
-84 160 -117 244 -137 178 -42 343 4 494 136 84 73 118 89 187 89 60 0 92 -16
178 -90 81 -71 163 -117 240 -134 182 -42 341 2 495 134 87 74 119 90 185 90
63 0 86 -11 186 -95 134 -112 257 -154 410 -142 123 11 213 53 333 157 74 63
110 80 171 80 62 0 102 -19 156 -73 49 -51 147 -112 223 -140 44 -16 80 -20
171 -20 163 0 230 26 371 146 83 70 117 87 178 87 68 0 86 -9 177 -85 128
-107 245 -155 380 -155 128 0 238 44 359 145 98 82 115 91 189 98 35 4 70 14
85 25 91 67 96 184 11 255 -84 71 -288 29 -434 -90 -127 -104 -143 -113 -206
-113 -78 0 -91 6 -184 83 -43 36 -105 80 -137 97 l-59 31 0 1510 0 1509 168 0
c154 0 171 2 212 23 60 30 93 91 87 160 -5 54 -28 91 -77 125 l-33 22 -2187 0
-2187 0 -33 -22z m1250 -1231 l0 -923 23 -44 c67 -134 266 -111 306 35 7 27
11 325 11 948 l0 907 240 0 240 0 0 -232 c0 -206 3 -238 19 -274 53 -116 224
-126 292 -17 23 37 24 46 27 281 l3 242 240 0 239 0 0 -413 c0 -240 4 -426 10
-446 23 -80 121 -136 199 -112 53 15 90 47 112 95 17 38 19 74 19 459 l0 417
240 0 240 0 0 -1507 0 -1508 -68 -32 c-37 -18 -98 -59 -137 -93 -38 -33 -84
-67 -102 -75 -31 -15 -109 -20 -150 -9 l-23 6 0 827 c0 782 -1 828 -19 867
-48 106 -176 132 -266 53 -19 -17 -39 -47 -45 -67 -6 -24 -10 -297 -10 -750
l0 -713 -69 7 c-150 14 -284 -33 -425 -151 -92 -78 -108 -85 -184 -85 -65 0
-85 10 -182 94 -118 102 -269 157 -391 143 l-48 -6 -3 257 c-3 284 -6 298 -70
343 -49 35 -142 39 -187 7 -19 -12 -44 -36 -55 -51 -20 -27 -21 -41 -24 -388
l-3 -359 -39 -20 c-52 -26 -143 -27 -185 -2 -16 11 -57 42 -90 70 -33 28 -86
66 -117 84 l-57 33 -1 1513 0 1512 245 0 245 0 0 -923z"/>
<path fill="white" d="M3450 4618 c-33 -17 -51 -35 -67 -68 l-23 -44 0 -766 0 -766 23 -44
c30 -59 64 -82 130 -88 70 -6 120 17 155 71 l27 41 0 786 0 786 -25 37 c-29
43 -91 77 -141 77 -19 0 -55 -10 -79 -22z"/>
<path fill="white" d="M670 1648 c-95 -64 -92 -209 6 -265 22 -13 57 -23 79 -23 53 -1 108
-27 175 -85 125 -109 208 -146 346 -153 161 -8 260 28 397 143 86 73 128 95
184 95 54 -1 108 -28 183 -93 118 -104 225 -147 365 -147 148 0 237 35 371
147 89 74 126 93 184 93 58 0 94 -19 183 -94 126 -107 225 -146 367 -146 142
0 234 37 367 148 89 74 125 92 183 92 58 0 94 -19 185 -95 128 -107 223 -145
365 -145 142 0 237 38 365 145 91 76 127 95 185 95 58 0 94 -18 183 -92 134
-112 225 -148 372 -148 140 0 247 43 365 147 75 65 129 92 184 93 152 1 212
203 86 288 -32 22 -43 24 -132 20 -85 -4 -105 -9 -170 -40 -40 -20 -111 -67
-157 -106 -92 -77 -145 -99 -208 -87 -52 10 -78 25 -153 90 -127 111 -216 145
-374 145 -153 -1 -245 -39 -379 -157 -119 -107 -212 -108 -327 -6 -139 124
-233 163 -390 163 -160 0 -230 -30 -409 -177 -113 -92 -187 -84 -331 37 -41
35 -108 79 -150 99 -70 33 -83 36 -187 39 -176 6 -255 -24 -415 -160 -126
-107 -198 -105 -338 13 -47 39 -118 87 -159 107 -69 33 -83 36 -187 40 -175 7
-253 -23 -412 -156 -133 -112 -200 -110 -342 9 -47 39 -118 87 -158 107 -65
31 -85 36 -170 40 -89 4 -100 2 -132 -20z"/>
<path fill="white" d="M682 863 c-47 -23 -75 -67 -79 -127 -7 -90 56 -166 136 -166 65 0
107 -19 180 -81 159 -133 240 -164 415 -157 104 4 118 7 187 40 41 20 112 67
157 106 144 119 211 121 344 10 158 -133 236 -162 411 -156 104 3 117 6 187
39 42 20 109 64 150 99 150 126 220 130 348 22 153 -130 231 -162 393 -162
153 0 228 29 364 143 79 67 106 83 156 92 53 10 111 -10 169 -58 180 -147 250
-177 410 -177 160 0 230 30 410 177 110 91 192 81 329 -36 124 -107 211 -141
360 -141 159 0 245 35 389 158 73 63 87 70 168 81 109 16 159 71 151 167 -7
94 -67 144 -174 144 -125 0 -220 -40 -346 -146 -87 -73 -128 -94 -187 -94 -58
0 -94 19 -183 94 -126 107 -225 146 -367 146 -142 0 -236 -38 -368 -148 -88
-74 -124 -92 -182 -92 -58 0 -94 18 -182 92 -132 110 -226 148 -368 148 -142
0 -237 -38 -365 -145 -91 -76 -127 -95 -185 -95 -58 0 -94 18 -183 92 -133
111 -225 148 -367 148 -141 0 -240 -39 -367 -145 -92 -77 -127 -95 -182 -95
-60 0 -101 20 -188 94 -132 111 -220 146 -368 146 -139 0 -244 -42 -365 -146
-82 -71 -128 -94 -182 -94 -58 1 -110 27 -193 99 -78 67 -146 105 -226 126
-72 20 -166 19 -207 -2z"/>
</g>
</svg>
